<?xml version="1.0" encoding="UTF-8"?>
<svg id="Layer_1" data-name="Layer 1" xmlns="http://www.w3.org/2000/svg" viewBox="0 0 117.89 117.89">
  <defs>
    <style>
      .cls-1 {
        stroke-width: 0px;
        color:white;
      }

      .cls-2 {
        font-family: Chivo-Regular, Chivo;
        color:white;
      }

      .cls-2, .cls-3 {
        font-size: 13.54px;
      }

      .cls-3 {
        font-family: Chivo-Thin, Chivo;
        font-weight: 200;
        color:white;
      }
    </style>
  </defs>
  <text class="cls-2" transform="translate(15.77 39.75) rotate(-57.81)"><tspan x="0" y="0">S</tspan></text>
  <text class="cls-2" transform="translate(20.05 32.84) rotate(-47.47)"><tspan x="0" y="0">C</tspan></text>
  <text class="cls-2" transform="translate(25.84 26.47) rotate(-36.77)"><tspan x="0" y="0">R</tspan></text>
  <text class="cls-2" transform="translate(32.77 21.26) rotate(-26.1)"><tspan x="0" y="0">A</tspan></text>
  <text class="cls-2" transform="translate(40.35 17.53) rotate(-15.79)"><tspan x="0" y="0">P</tspan></text>
  <text class="cls-2" transform="translate(48.12 15.3) rotate(-5.81)"><tspan x="0" y="0">S</tspan></text>
  <text class="cls-2" transform="translate(56.32 14.61) rotate(1.16)"><tspan x="0" y="0"> </tspan></text>
  <text class="cls-2" transform="translate(59.47 14.67) rotate(5.1)"><tspan x="0" y="0"> </tspan></text>
  <text class="cls-2" transform="translate(62.63 14.94) rotate(9.07)"><tspan x="0" y="0"> </tspan></text>
  <text class="cls-2" transform="translate(65.74 15.43) rotate(13.02)"><tspan x="0" y="0"> </tspan></text>
  <text class="cls-2" transform="translate(68.82 16.14) rotate(16.98)"><tspan x="0" y="0"> </tspan></text>
  <text class="cls-2" transform="translate(71.82 17.05) rotate(20.9)"><tspan x="0" y="0"> </tspan></text>
  <text class="cls-2" transform="translate(74.78 18.18) rotate(24.84)"><tspan x="0" y="0"> </tspan></text>
  <text class="cls-2" transform="translate(77.64 19.5) rotate(28.76)"><tspan x="0" y="0"> </tspan></text>
  <text class="cls-2" transform="translate(80.4 21) rotate(32.66)"><tspan x="0" y="0"> </tspan></text>
  <text class="cls-2" transform="translate(83.05 22.69) rotate(36.55)"><tspan x="0" y="0"> </tspan></text>
  <text class="cls-2" transform="translate(85.6 24.58) rotate(40.48)"><tspan x="0" y="0"> </tspan></text>
  <text class="cls-2" transform="translate(88 26.62) rotate(44.37)"><tspan x="0" y="0"> </tspan></text>
  <text class="cls-2" transform="translate(90.25 28.82) rotate(48.27)"><tspan x="0" y="0"> </tspan></text>
  <text class="cls-2" transform="translate(92.35 31.17) rotate(52.19)"><tspan x="0" y="0"> </tspan></text>
  <text class="cls-2" transform="translate(94.3 33.66) rotate(56.14)"><tspan x="0" y="0"> </tspan></text>
  <text class="cls-2" transform="translate(96.06 36.27) rotate(60.07)"><tspan x="0" y="0"> </tspan></text>
  <text class="cls-3" transform="translate(97.73 38.84) rotate(67.14)"><tspan x="0" y="0">S</tspan></text>
  <text class="cls-3" transform="translate(100.96 46.29) rotate(77.78)"><tspan x="0" y="0">O</tspan></text>
  <text class="cls-3" transform="translate(102.87 55.03) rotate(88.52)"><tspan x="0" y="0">C</tspan></text>
  <text class="cls-3" transform="translate(102.97 63.69) rotate(96.8)"><tspan x="0" y="0">I</tspan></text>
  <text class="cls-3" transform="translate(102.54 68.32) rotate(104.56)"><tspan x="0" y="0">E</tspan></text>
  <text class="cls-3" transform="translate(100.63 75.77) rotate(114.03)"><tspan x="0" y="0">T</tspan></text>
  <text class="cls-3" transform="translate(97.6 82.63) rotate(123.26)"><tspan x="0" y="0">Y</tspan></text>
  <path class="cls-1" d="m93.26,93.54c-4.8,5.92-10.86,10.55-17.83,13.66-3.75,1.67-7.73,2.89-11.77,3.62-3.47.63-9,2.03-11.44-1.31-2.59-3.53-2.27-8.48-5.27-11.91-2.44-2.79-5.19-3-8.68-2.46-4.6.71-9.72,3.29-14.41,2.91-5.57-.46-2.43-11.79-3.71-15.76-1.57-4.87-6.46-7.14-9.44-10.95-4.98-6.37-.97-18.07,1.76-24.75.73-1.78-2.17-2.56-2.89-.8-2.58,6.3-4.38,13.48-3.93,20.35.28,4.38,2.62,7.23,5.76,10.09,1.97,1.8,4.28,3.55,5.44,6.03,1.28,2.76.77,5.93.74,8.89-.03,3.23,0,7.72,3.39,9.36,6.93,3.36,18.18-7.08,23.69-.92,2.82,3.15,2.74,7.91,4.96,11.42s5.76,3.71,9.67,3.38c13.92-1.19,27.24-7.86,36.08-18.74,1.21-1.49-.9-3.62-2.12-2.12h0Z"/>
  <path class="cls-1" d="m61.77,10.67c13.92.45,26.54,6.81,34.26,18.55,1.06,1.61,3.66.11,2.59-1.51-8.31-12.64-21.84-19.56-36.86-20.04-1.93-.06-1.93,2.94,0,3h0Z"/>
  <path class="cls-1" d="m5.53,48.85l7.1-3.56-2.05-.54,2.72,5.68c.83,1.74,3.42.22,2.59-1.51l-2.72-5.68c-.37-.76-1.38-.88-2.05-.54l-7.1,3.56c-1.73.86-.21,3.45,1.51,2.59h0Z"/>
  <path class="cls-1" d="m99.84,24.65l-2.29,6.38,1.85-1.05-6.44-1.54c-1.88-.45-2.68,2.44-.8,2.89l6.44,1.54c.83.2,1.56-.26,1.85-1.05l2.29-6.38c.65-1.82-2.24-2.6-2.89-.8h0Z"/>
</svg>