<?xml version="1.0" encoding="UTF-8"?>
<svg id="Layer_1" data-name="Layer 1" xmlns="http://www.w3.org/2000/svg" viewBox="0 0 86.98 42.21">
  <defs>
    <style>
      .cls-1 {
        font-family: Chivo-Thin, Chivo;
        font-size: 12.49px;
        font-weight: 200;
        fill: white;
      }

      .cls-2 {
        stroke-width: 0px;
        fill: white;
      }

      .cls-3 {
        font-family: Chivo-Regular, Chivo;
        font-size: 13px;
        fill: white;
      }
    </style>
  </defs>
  <path class="cls-2" d="m50.71,4.66c10.78-.92,20.77,2.67,27.88,10.95,1.01,1.17,2.7-.53,1.7-1.7-7.48-8.71-18.22-12.62-29.57-11.65-1.53.13-1.54,2.53,0,2.4h0Z"/>
  <path class="cls-2" d="m80.96,11.48l-1.14,5.04,1.16-.88-5.02-.56c-1.53-.17-1.52,2.23,0,2.4l5.02.56c.5.06,1.05-.41,1.16-.88l1.14-5.04c.34-1.5-1.97-2.15-2.31-.64h0Z"/>
  <path class="cls-2" d="m67.39,37.13c-3.84.63-9.11-4.04-12.44-5.6-2.63-1.24-5.44-2.33-8.35-1.58-3.69.96-6.74,3.94-9.85,5.98-2.35,1.54-4.36,2.63-7.28,2.1-3.22-.58-5.92-2.28-8.4-4.32-1.18-.98-2.89.71-1.7,1.7,3.33,2.75,7.74,5.59,12.28,5.32,4.14-.25,7.7-3.81,10.97-5.98,2.7-1.79,4.85-3.12,8.21-2.3,2.57.63,5.02,2.22,7.32,3.5,2.94,1.63,6.35,4.08,9.88,3.5,1.52-.25.88-2.56-.64-2.31h0Z"/>
  <path class="cls-2" d="m19.32,37.96l.19-5.17-1.2,1.2,5.04-.37c1.53-.11,1.54-2.51,0-2.4l-5.04.37c-.67.05-1.17.51-1.2,1.2l-.19,5.17c-.06,1.54,2.34,1.54,2.4,0h0Z"/>
  <text class="cls-3" transform="translate(8.14 36.07) rotate(-70.11)"><tspan x="0" y="0">S</tspan></text>
  <text class="cls-3" transform="translate(10.65 28.88) rotate(-54.4)"><tspan x="0" y="0">C</tspan></text>
  <text class="cls-3" transform="translate(15.34 22.26) rotate(-40.43)"><tspan x="0" y="0">R</tspan></text>
  <text class="cls-3" transform="translate(21.65 16.87) rotate(-28.37)"><tspan x="0" y="0">A</tspan></text>
  <text class="cls-3" transform="translate(28.77 13.02) rotate(-17.93)"><tspan x="0" y="0">P</tspan></text>
  <text class="cls-3" transform="translate(36.15 10.6) rotate(-8.42)"><tspan x="0" y="0">S</tspan></text>
  <text class="cls-1" transform="translate(38.99 22.06) rotate(-11.68)"><tspan x="0" y="0">S</tspan></text>
  <text class="cls-1" transform="translate(46.07 20.47) rotate(5.27)"><tspan x="0" y="0">O</tspan></text>
  <text class="cls-1" transform="translate(54.13 21.2) rotate(20.62)"><tspan x="0" y="0">C</tspan></text>
  <text class="cls-1" transform="translate(61.46 24.11) rotate(30.76)"><tspan x="0" y="0">I</tspan></text>
  <text class="cls-1" transform="translate(65.16 26.17) rotate(39.3)"><tspan x="0" y="0">E</tspan></text>
  <text class="cls-1" transform="translate(70.63 30.62) rotate(48.9)"><tspan x="0" y="0">T</tspan></text>
  <text class="cls-1" transform="translate(75.19 35.83) rotate(57.74)"><tspan x="0" y="0">Y</tspan></text>
</svg>
